<mxfile host="app.diagrams.net" modified="2023-09-11T05:51:10.422Z" agent="Mozilla/5.0 (Windows NT 10.0; Win64; x64) AppleWebKit/537.36 (KHTML, like Gecko) Chrome/116.0.0.0 Safari/537.36" etag="ICd7G4vHRVxwc5t8Ck1o" version="21.7.4" type="github">
  <diagram name="Page-1" id="4Mcb4wN6FesVW4BI0TOa">
    <mxGraphModel dx="880" dy="488" grid="1" gridSize="10" guides="1" tooltips="1" connect="1" arrows="1" fold="1" page="1" pageScale="1" pageWidth="850" pageHeight="1100" math="0" shadow="0">
      <root>
        <mxCell id="0" />
        <mxCell id="1" parent="0" />
        <mxCell id="KB2Mqh35VilyXtLkSOzw-11" value="User" style="shape=umlActor;verticalLabelPosition=bottom;verticalAlign=top;html=1;outlineConnect=0;fontStyle=1" vertex="1" parent="1">
          <mxGeometry x="647" y="461" width="70" height="120" as="geometry" />
        </mxCell>
        <mxCell id="KB2Mqh35VilyXtLkSOzw-19" value="Komputer" style="shape=umlActor;verticalLabelPosition=bottom;verticalAlign=top;html=1;outlineConnect=0;fontStyle=1" vertex="1" parent="1">
          <mxGeometry x="120" y="460" width="70" height="120" as="geometry" />
        </mxCell>
        <mxCell id="KB2Mqh35VilyXtLkSOzw-24" value="Game Tebak Angka" style="rounded=0;whiteSpace=wrap;html=1;verticalAlign=top;fontStyle=1;fontSize=17;" vertex="1" parent="1">
          <mxGeometry x="260" y="270" width="300" height="430" as="geometry" />
        </mxCell>
        <mxCell id="KB2Mqh35VilyXtLkSOzw-25" value="Random Angka" style="ellipse;whiteSpace=wrap;html=1;fontStyle=1;fontSize=13;" vertex="1" parent="1">
          <mxGeometry x="342.5" y="390" width="135" height="90" as="geometry" />
        </mxCell>
        <mxCell id="KB2Mqh35VilyXtLkSOzw-26" value="Tebak Angka" style="ellipse;whiteSpace=wrap;html=1;fontStyle=1;fontSize=13;" vertex="1" parent="1">
          <mxGeometry x="342.5" y="520" width="135" height="85" as="geometry" />
        </mxCell>
        <mxCell id="KB2Mqh35VilyXtLkSOzw-27" value="" style="endArrow=none;html=1;rounded=0;" edge="1" parent="1" source="KB2Mqh35VilyXtLkSOzw-19" target="KB2Mqh35VilyXtLkSOzw-25">
          <mxGeometry width="50" height="50" relative="1" as="geometry">
            <mxPoint x="180" y="550.33" as="sourcePoint" />
            <mxPoint x="362.6182811552328" y="513.0003501350451" as="targetPoint" />
          </mxGeometry>
        </mxCell>
        <mxCell id="KB2Mqh35VilyXtLkSOzw-28" value="" style="endArrow=none;html=1;rounded=0;exitX=1;exitY=0.5;exitDx=0;exitDy=0;" edge="1" parent="1" source="KB2Mqh35VilyXtLkSOzw-26" target="KB2Mqh35VilyXtLkSOzw-11">
          <mxGeometry width="50" height="50" relative="1" as="geometry">
            <mxPoint x="461" y="459" as="sourcePoint" />
            <mxPoint x="670" y="534" as="targetPoint" />
          </mxGeometry>
        </mxCell>
      </root>
    </mxGraphModel>
  </diagram>
</mxfile>
